<?xml version="1.0" encoding="utf-8"?>
<!-- Generator: Adobe Illustrator 23.0.3, SVG Export Plug-In . SVG Version: 6.00 Build 0)  -->
<svg version="1.1" id="Layer_1" xmlns="http://www.w3.org/2000/svg" xmlns:xlink="http://www.w3.org/1999/xlink" x="0px" y="0px"
	 viewBox="0 0 850.39 850.39" style="enable-background:new 0 0 850.39 850.39;" xml:space="preserve">
<style type="text/css">
	.st0{fill:#010101;}
</style>
<g>
	<path class="st0" d="M157.44,496.33c-1.65,0-2.95,0-4.25,0c-41.51,0-83.02-0.1-124.53,0.09c-7.55,0.03-11.63-3.31-11.79-11.79
		c-0.17-9.41,1.77-18.68,2.64-28.03c1.01-10.94,2.46-21.83,3.71-32.74c1.27-11.05,2.55-22.1,3.8-33.16
		c1.18-10.52,2.33-21.04,3.48-31.57c1.96-18.01,7.65-34.55,19.18-48.8c6.48-8.01,15.59-10.68,25.1-12.96
		c38.28-9.19,76.49-18.65,114.77-27.83c5.66-1.36,11.38-2.83,17.43-1.49c5.26,1.16,7.75,4.6,8.59,9.34
		c1.19,6.68,0.54,13.45-0.24,20.11c-1.58,13.42-3.49,26.8-5.35,40.18c-2.04,14.7-4.25,29.39-6.27,44.1
		c-2.07,15.11-3.76,30.28-6.07,45.36c-1.31,8.55-1.65,17.29-4.37,25.62c-2.67,8.18-7.47,15.28-11.44,23.15
		c4.04,0.5,7.83-0.34,11.63-0.42c28.69-0.59,57.38-1.12,86.07-1.83c26.66-0.66,53.32-1.54,79.99-2.25c1.76-0.05,2.46-0.35,2.76-2.33
		c1.7-11.22,3.63-22.4,5.46-33.6c2.35-14.37,4.68-28.74,7-43.11c2.27-14.11,4.41-28.24,6.78-42.33c4.44-26.4,7.24-53.14,16.27-78.59
		c12.81-36.13,38.64-57.74,75.44-66.13c57.46-13.1,114.66-27.26,172.06-40.63c34.59-8.06,69.1-16.49,103.58-25.05
		c13.53-3.36,26.7-8.14,40.43-10.82c8.56-1.67,17.13-2.95,25.92-1.45c13.41,2.29,17.66,11.13,18.27,22.2
		c0.51,9.35-2.26,18.25-4.33,27.22c-9.01,38.89-18.07,77.76-27.12,116.64c-8.88,38.1-16.94,76.41-26.92,114.22
		c-8.51,32.26-26.67,58.53-55.69,76.25c-15.37,9.38-32.17,13.9-50.23,14.06c-89.75,0.78-179.49,1.66-269.24,2.42
		c-3.52,0.03-5.21,0.45-5.88,4.71c-3.07,19.36-6.7,38.64-10.16,57.94c-3.42,19.04-6.93,38.06-10.33,57.1
		c-3.07,17.21-5.61,34.52-9.16,51.62c-4.81,23.17-16.33,41.37-39.94,49.57c-9.28,3.22-18.68,2.94-28.09,0.6
		c-13.46-3.35-27.19-5.37-40.79-8.01c-19.24-3.74-38.53-7.24-57.79-10.87c-16.5-3.11-32.97-6.46-49.51-9.31
		c-12.69-2.19-18.86-9.2-19.15-22.08c-0.3-13.38,2.11-26.43,3.93-39.57c1.76-12.72,3.32-25.47,5.06-38.19
		c1.76-12.85,3.7-25.68,5.45-38.54c1.23-9.02,2.15-18.08,3.41-27.09C148.52,517.13,151.53,506.44,157.44,496.33z"/>
	<path class="st0" d="M593.3,642.92c0,1.27,0,2.54,0,3.8c0,24.12-0.07,48.24,0.08,72.36c0.02,3.27-0.93,4.05-4.04,3.94
		c-6.73-0.23-13.48-0.19-20.21-0.01c-2.58,0.07-3.14-0.83-3.13-3.24c0.06-44.47,0.07-88.94-0.01-133.4c0-2.64,0.7-3.46,3.39-3.38
		c6.87,0.19,13.75,0.17,20.61,0.01c2.47-0.06,3.76,0.75,4.94,2.95c13.68,25.66,27.48,51.26,41.25,76.87c0.36,0.67,0.72,1.35,1.74,2
		c0-1.24,0-2.49,0-3.73c0-24.66,0.07-49.32-0.08-73.98c-0.02-3.42,0.93-4.28,4.24-4.14c6.59,0.27,13.2,0.16,19.8,0.04
		c2.28-0.04,3.35,0.3,3.34,3.01c-0.08,44.6-0.08,89.21-0.01,133.81c0,2.48-0.7,3.24-3.19,3.18c-7-0.16-14.02-0.18-21.02,0.01
		c-2.75,0.08-4.21-0.74-5.56-3.26c-13.32-24.94-26.81-49.8-40.24-74.68c-0.41-0.77-0.83-1.53-1.24-2.29
		C593.74,642.84,593.52,642.88,593.3,642.92z"/>
	<path class="st0" d="M443.7,583.07c9.44,0,18.86,0.14,28.28-0.09c2.74-0.06,2.67,1.84,3.09,3.26c7.14,23.65,14.18,47.33,21.27,71
		c1.86,6.21,3.77,12.41,5.95,19.58c5.48-19.03,10.67-37.07,15.88-55.1c3.47-12,7.09-23.95,10.38-36c0.62-2.26,1.52-2.7,3.54-2.68
		c8.08,0.07,16.17,0.11,24.25-0.01c2.67-0.04,3.44,0.24,2.49,3.28c-13.97,44.61-27.78,89.26-41.6,133.91
		c-0.64,2.08-1.61,2.87-3.93,2.81c-7.67-0.19-15.36-0.24-23.03,0.02c-2.72,0.09-3.69-1-4.39-3.26
		c-9.97-31.94-19.98-63.88-29.96-95.82c-3.88-12.42-7.7-24.87-11.61-37.28C443.95,585.55,443.57,584.48,443.7,583.07z"/>
	<path class="st0" d="M756.82,648.15c10.54-11.17,13.35-24.46,10.15-38.83c-2.62-11.77-8.87-21.24-21.53-24.49
		c-6.23-1.6-12.61-2.54-19.07-2.57c-12.39-0.05-24.78-0.04-37.16,0.68c-2.96,0.17-3.74,0.72-3.73,3.75c0.12,34.5,0.08,69,0.08,103.5
		c0,9.97,0.03,19.95-0.03,29.92c-0.01,1.84,0.1,2.86,2.49,2.91c17.61,0.35,35.2,1.43,52.81-0.77c14.42-1.8,24.5-8.34,28.95-22.63
		c1.19-3.84,2.37-7.68,2.74-11.64C774.04,672.19,771.07,658.05,756.82,648.15z M710.41,617.87c0-7.29-0.01-7.44,7.16-7.95
		c6.43-0.46,12.86-0.44,19.17,1.35c3.39,0.96,5.33,3.01,6.39,6.38c0.96,3.07,0.92,6.16,0.51,9.16c-0.79,5.76-4.58,8.81-11.09,9.63
		c-6.71,0.84-13.42,0.56-20.14,0.15c-2.04-0.12-2.03-1.12-2.01-2.56c0.04-3.64,0.01-7.27,0.01-10.91
		C710.41,621.37,710.41,619.62,710.41,617.87z M747.55,681.46c-0.58,9.8-5.04,13.61-14.95,13.97c-6.58,0.24-13.18-0.03-19.77,0.09
		c-1.98,0.04-2.52-0.57-2.46-2.5c0.13-4.57,0.04-9.14,0.04-13.72c0-4.3-0.02-8.61,0.01-12.91c0.01-1.12-0.43-2.52,1.59-2.5
		c7.89,0.09,15.78-0.87,23.68,0.65C745.58,666.45,748.09,672.37,747.55,681.46z"/>
</g>
</svg>
